HIERARCHY
ROOT Hips
{
	OFFSET 0.00000 0.00000 0.00000
	CHANNELS 6 Xposition Yposition Zposition Zrotation Yrotation Xrotation 
	JOINT LHipJoint
	{
		OFFSET 0 0 0
		CHANNELS 3 Zrotation Yrotation Xrotation
		JOINT LeftUpLeg
		{
			OFFSET 1.65674 -1.80282 0.62477
			CHANNELS 3 Zrotation Yrotation Xrotation
			JOINT LeftLeg
			{
				OFFSET 2.59720 -7.13576 0.00000
				CHANNELS 3 Zrotation Yrotation Xrotation
				JOINT LeftFoot
				{
					OFFSET 2.49236 -6.84770 0.00000
					CHANNELS 3 Zrotation Yrotation Xrotation
					JOINT LeftToeBase
					{
						OFFSET 0.19704 -0.54136 2.14581
						CHANNELS 3 Zrotation Yrotation Xrotation
						End Site
						{
							OFFSET 0.00000 -0.00000 1.11249
						}
					}
				}
			}
		}
	}
	JOINT RHipJoint
	{
		OFFSET 0 0 0
		CHANNELS 3 Zrotation Yrotation Xrotation
		JOINT RightUpLeg
		{
			OFFSET -1.61070 -1.80282 0.62476
			CHANNELS 3 Zrotation Yrotation Xrotation
			JOINT RightLeg
			{
				OFFSET -2.59502 -7.12977 0.00000
				CHANNELS 3 Zrotation Yrotation Xrotation
				JOINT RightFoot
				{
					OFFSET -2.46780 -6.78024 0.00000
					CHANNELS 3 Zrotation Yrotation Xrotation
					JOINT RightToeBase
					{
						OFFSET -0.23024 -0.63258 2.13368
						CHANNELS 3 Zrotation Yrotation Xrotation
						End Site
						{
							OFFSET -0.00000 -0.00000 1.11569
						}
					}
				}
			}
		}
	}
	JOINT LowerBack
	{
		OFFSET 0 0 0
		CHANNELS 3 Zrotation Yrotation Xrotation
		JOINT Spine
		{
			OFFSET 0.01961 2.05450 -0.14112
			CHANNELS 3 Zrotation Yrotation Xrotation
			JOINT Spine1
			{
				OFFSET 0.01021 2.06436 -0.05921
				CHANNELS 3 Zrotation Yrotation Xrotation
				JOINT Neck
				{
					OFFSET 0 0 0
					CHANNELS 3 Zrotation Yrotation Xrotation
					JOINT Neck1
					{
						OFFSET 0.00713 1.56711 0.14968
						CHANNELS 3 Zrotation Yrotation Xrotation
						JOINT Head
						{
							OFFSET 0.03429 1.56041 -0.10006
							CHANNELS 3 Zrotation Yrotation Xrotation
							End Site
							{
								OFFSET 0.01305 1.62560 -0.05265
							}
						}
					}
				}
				JOINT LeftShoulder
				{
					OFFSET 0 0 0
					CHANNELS 3 Zrotation Yrotation Xrotation
					JOINT LeftArm
					{
						OFFSET 3.54205 0.90436 -0.17364
						CHANNELS 3 Zrotation Yrotation Xrotation
						JOINT LeftForeArm
						{
							OFFSET 4.86513 -0.00000 -0.00000
							CHANNELS 3 Zrotation Yrotation Xrotation
							JOINT LeftHand
							{
								OFFSET 3.35554 -0.00000 0.00000
								CHANNELS 3 Zrotation Yrotation Xrotation
								JOINT LeftFingerBase
								{
									OFFSET 0 0 0
									CHANNELS 3 Zrotation Yrotation Xrotation
									JOINT LeftHandIndex1
									{
										OFFSET 0.66117 -0.00000 0.00000
										CHANNELS 3 Zrotation Yrotation Xrotation
										End Site
										{
											OFFSET 0.53306 -0.00000 0.00000
										}
									}
								}
								JOINT LThumb
								{
									OFFSET 0 0 0
									CHANNELS 3 Zrotation Yrotation Xrotation
									End Site
									{
										OFFSET 0.54120 -0.00000 0.54120
									}
								}
							}
						}
					}
				}
				JOINT RightShoulder
				{
					OFFSET 0 0 0
					CHANNELS 3 Zrotation Yrotation Xrotation
					JOINT RightArm
					{
						OFFSET -3.49802 0.75994 -0.32616
						CHANNELS 3 Zrotation Yrotation Xrotation
						JOINT RightForeArm
						{
							OFFSET -5.02649 -0.00000 0.00000
							CHANNELS 3 Zrotation Yrotation Xrotation
							JOINT RightHand
							{
								OFFSET -3.36431 -0.00000 0.00000
								CHANNELS 3 Zrotation Yrotation Xrotation
								JOINT RightFingerBase
								{
									OFFSET 0 0 0
									CHANNELS 3 Zrotation Yrotation Xrotation
									JOINT RightHandIndex1
									{
										OFFSET -0.73041 -0.00000 0.00000
										CHANNELS 3 Zrotation Yrotation Xrotation
										End Site
										{
											OFFSET -0.58887 -0.00000 0.00000
										}
									}
								}
								JOINT RThumb
								{
									OFFSET 0 0 0
									CHANNELS 3 Zrotation Yrotation Xrotation
									End Site
									{
										OFFSET -0.59786 -0.00000 0.59786
									}
								}
							}
						}
					}
				}
			}
		}
	}
}
MOTION
Frames: 6
Frame Time: 0.033333
9.2872 16.95 -34.2762 0 0 0 0 0 0 -21 0 0 0 0 0 0 0 0 0 0 0 0 0 0 21 0 0 0 0 0 0 0 0 0 0 0 0 0 0 0 0 0 0 0 0 0 0 -16 0 0 21 0 0 11 0 0 0 -8 0 0 0 0 0 0 0 0 0 0 0 0 0 0 0 0 0 0 0 0 8 0 0 0 0 0 0 0 0 0 0 0 0 0 0 0 0 0
9.2493 17.0163 -33.2206 3.8095 3.3080 7.6764 0.0000 0.0000 0.0000 -26.9981 -0.1209 12.9510 2.8274 10.4103 30.3159 1.2293 16.5159 21.4728 0.0000 0.0000 0.0000 0.0000 0.0000 0.0000 15.7871 17.2723 -33.7264 -4.8196 -13.1777 40.0373 -1.4474 -4.8024 -24.9019 -1.3144 7.2617 -20.4929 -4.3582 -4.2259 6.3418 0.6922 -5.8909 1.2405 3.5761 -2.9195 -1.7476 -2.8394 3.2228 -17.5937 -0.4726 4.7831 -3.8725 0.6560 2.3879 1.6836 -0.0000 -0.0000 0.0000 -71.7595 -4.8020 62.9966 124.6581 -54.9352 -89.5043 -0.0000 0.0000 -33.8492 32.3603 1.9818 1.2553 -7.1250 0.0000 -0.0000 4.6622 32.3024 -1.4534 -0.0000 -0.0000 0.0000 81.4179 -39.3451 38.6057 -75.0381 59.1370 -47.0801 0.0000 -0.0000 -12.1663 -47.3684 34.0055 -31.2800 7.1250 -0.0000 -0.0000 -7.7496 14.5527 -9.5230
9.2162 16.9504 -31.9227 3.3130 2.2694 7.6129 0.0000 0.0000 0.0000 -25.9120 -0.3589 5.8084 6.8143 15.1735 48.1685 0.4111 13.4961 13.9059 1.3792 -7.4315 -21.0002 0.0000 0.0000 0.0000 18.1142 16.1236 -31.4583 -4.1346 -12.3374 36.9362 -1.1771 -5.5824 -23.2155 -1.3961 7.4750 -21.1304 -3.5779 -3.7690 6.8276 0.9785 -5.2490 0.8206 3.4611 -2.5759 -2.5543 -2.3368 3.2305 -16.7053 -1.8241 4.7000 -3.9553 0.1121 2.3031 1.5470 0.0000 -0.0000 0.0000 -73.1747 1.8587 64.8029 119.5532 -56.4278 -85.2869 -0.0000 0.0000 -30.9644 31.0107 0.2449 0.1472 -7.1250 0.0000 -0.0000 3.5133 30.2558 -1.2667 0.0000 -0.0000 0.0000 82.3928 -34.1096 38.5489 -78.3747 59.4831 -49.9497 0.0000 -0.0000 -11.6972 -46.9458 34.4519 -31.1951 7.1250 -0.0000 -0.0000 -7.3883 14.8358 -9.0985
9.2055 16.6185 -30.6551 1.0238 0.8200 5.5257 0.0000 0.0000 0.0000 -22.5610 -0.1685 -0.7147 13.0265 18.7917 69.2079 -0.3090 14.2787 5.8757 0.5017 -4.5410 -12.6038 0.0000 0.0000 0.0000 23.0985 14.2664 -26.1279 -4.5336 -12.8385 38.7670 -1.1576 -3.0426 -21.6292 -0.4258 4.1878 -11.6056 -1.1424 -2.9984 8.5123 1.4833 -4.0335 1.9047 2.5951 -1.9979 -2.6020 -1.1959 2.8834 -16.0286 -3.3298 3.9853 -5.7972 -0.6308 1.9251 0.8820 -0.0000 0.0000 0.0000 -73.6854 8.0368 64.6779 112.4253 -58.0118 -79.2913 -0.0000 0.0000 -31.4546 32.5993 0.6117 0.3912 -7.1250 0.0000 -0.0000 4.7872 30.6864 -1.6790 -0.0000 0.0000 0.0000 82.1323 -24.0039 39.7489 -82.8246 59.8046 -53.7900 0.0000 -0.0000 -11.3580 -47.0795 33.5014 -30.6912 7.1250 -0.0000 -0.0000 -7.7628 13.8541 -9.4713
9.1918 16.2456 -29.4408 -1.5566 -2.6287 4.2164 0.0000 0.0000 0.0000 -18.2460 1.0915 -10.6864 20.0859 19.9998 90.2513 -0.3907 12.6179 1.9756 0.3745 -3.9307 -10.8819 0.0000 0.0000 0.0000 27.5767 16.5945 -22.3874 -5.9531 -14.3827 44.7930 -1.5991 -1.5672 -24.5088 -0.0016 -0.2545 0.6993 0.9238 -1.7377 10.4784 2.3480 -2.1211 2.6518 2.1909 -1.0577 -3.0520 -2.8684 3.0206 -11.5407 -2.0278 4.1671 -11.0611 -0.0814 2.1939 -1.5777 -0.0000 -0.0000 0.0000 -73.9155 13.6066 62.3107 100.0302 -59.6164 -68.6752 -0.0000 0.0000 -30.5961 33.4936 3.4171 2.2587 -7.1250 0.0000 -0.0000 5.6501 34.0341 -1.5262 -0.0000 -0.0000 0.0000 79.5218 -10.2950 42.0422 -89.5824 59.9993 -59.6384 0.0000 -0.0000 -11.1363 -47.2549 32.8403 -30.4026 7.1250 -0.0000 -0.0000 -8.0626 13.2040 -9.7761
9.2397 15.9709 -28.2410 -5.3909 -7.4712 3.2965 0.0000 0.0000 0.0000 -12.3632 3.1490 -21.2201 25.3313 19.3044 105.7634 -0.3088 9.8090 -3.0368 1.1462 -6.7983 -19.1193 0.0000 0.0000 0.0000 32.9703 15.8915 -16.4126 -6.4536 -14.8540 46.7763 -2.0194 1.9044 -26.3656 -0.0032 0.3661 -1.0059 4.9322 -0.4745 12.8755 3.1855 0.1099 3.8252 0.5322 0.0324 -3.1905 -2.5028 3.5548 -12.3354 -2.8398 4.7877 -12.2054 -0.3835 2.5099 -1.7978 -0.0000 0.0000 0.0000 -73.7453 20.5170 58.2549 89.0423 -59.9965 -59.1706 -0.0000 0.0000 -28.6740 38.4630 3.1832 2.5257 -7.1250 0.0000 -0.0000 9.7118 33.9204 -2.6719 -0.0000 0.0000 0.0000 76.5871 6.7539 44.4663 -95.6967 59.8770 -64.9314 0.0000 -0.0000 -9.1460 -48.3988 33.0340 -31.5489 7.1250 -0.0000 -0.0000 -8.5933 13.9896 -10.5185
